<svg width="64" height="64" viewBox="0 0 96 96" fill="none" xmlns="http://www.w3.org/2000/svg">
  <defs><linearGradient id="blue" x1="15" y1="12" x2="78" y2="84" gradientUnits="userSpaceOnUse"><stop stop-color="#38BDF8"/><stop offset="1" stop-color="#2F80ED"/></linearGradient></defs>
  <rect x="5" y="5" width="86" height="86" rx="24" fill="#0E172B" stroke="url(#blue)" stroke-width="4"/>
  <path d="M29 25H48.5C59 25 64.5 31 64.5 39.5C64.5 45 61.5 48.5 57 50C63 51.5 67 55.5 67 62.5C67 71.5 60.5 77 48.5 77H29V25ZM41 35V45H48C51.5 45 53.5 43 53.5 40C53.5 37 51.5 35 48 35H41ZM41 55V67H49C53.5 67 55.5 64.5 55.5 61C55.5 57.5 53.5 55 49 55H41Z" fill="url(#blue)"/>
  <path d="M72 27L80 35M80 35L72 43M80 35H66" stroke="#F8FAFC" stroke-width="4" stroke-linecap="round" stroke-linejoin="round"/>
</svg>
